# Blender v2.92.0 OBJ File: 'grass-plane.blend'
# www.blender.org
mtllib grass-plane.mtl
o Plane
v -45.694511 -0.487428 45.480789
v 43.904945 -0.768302 40.214046
v -47.677650 1.037181 -47.714783
v 47.565090 0.459005 -41.637970
v -42.110424 2.005441 -34.556194
v -42.147556 -3.060189 -30.107597
v -42.832294 3.406795 -19.836937
v -44.516636 -0.056777 -11.876353
v -45.867001 -2.980249 -5.041099
v -44.945843 0.418285 4.921597
v -46.283985 0.676087 7.200676
v -45.372719 0.608769 20.308714
v -44.922142 0.100973 28.707497
v -45.630764 -0.051825 36.201904
v -35.975163 1.160784 46.996292
v -28.995239 3.452106 42.301445
v -20.700935 2.265446 41.681152
v -14.302793 -0.699612 44.044044
v -1.643346 -1.075253 46.039291
v 6.398593 -0.531734 42.459988
v 10.625419 -0.699740 46.948376
v 24.095755 3.901119 46.267582
v 29.131464 -1.677290 45.612568
v 35.500713 1.812833 44.618011
v 41.302013 -0.854065 32.671879
v 45.285934 -0.700158 28.236221
v 44.852226 -0.331762 20.422741
v 48.202335 -2.737070 10.734896
v 45.537773 -1.492420 3.797559
v 42.858990 0.621318 -5.208930
v 45.023232 -0.088101 -12.408900
v 47.091961 0.500071 -23.053778
v 42.958736 3.674706 -27.926075
v 42.078682 -1.799161 -34.030807
v 37.164444 1.474149 -45.841316
v 28.004776 -0.956090 -43.259907
v 20.133436 0.596970 -45.565163
v 15.155741 1.150257 -45.507584
v 4.350023 1.416269 -47.010925
v -4.083288 -0.001348 -44.998909
v -15.447445 -2.813245 -41.714294
v -20.501869 0.000001 -45.069847
v -30.389542 3.979339 -47.181213
v -40.425156 -0.706903 -42.397030
v -40.265396 -2.337448 34.580719
v -38.633575 -2.248758 28.193855
v -34.012165 0.168885 22.053740
v -34.749966 -2.823184 11.033134
v -36.853252 -1.268636 4.145541
v -40.438774 -1.600580 -4.405504
v -38.782494 -1.146975 -15.194447
v -36.167934 -3.659771 -19.300404
v -39.002102 3.111760 -31.168203
v -40.191597 0.550854 -37.215153
v -28.734480 0.356784 41.764793
v -28.339455 -3.310194 25.142712
v -28.797750 0.035010 19.718149
v -25.994715 -0.390985 13.241432
v -28.466734 0.067636 4.175161
v -27.779419 2.740062 -5.769846
v -28.540613 1.772663 -15.117929
v -31.981850 -3.985778 -18.764999
v -31.632042 0.722261 -28.601622
v -30.464045 3.652032 -36.575096
v -24.251635 -1.116937 35.060879
v -18.044039 0.537827 30.556103
v -20.718321 0.432946 21.462149
v -22.249857 0.893515 15.127401
v -21.303530 -1.592077 6.000763
v -23.029335 0.191107 -0.907728
v -22.659061 1.862547 -10.091626
v -20.538429 3.946207 -23.483208
v -22.357586 -0.246537 -27.617426
v -20.968456 -0.539391 -38.839657
v -10.538163 -1.559934 36.231403
v -11.954855 0.093005 32.780365
v -9.434879 0.059310 20.606222
v -10.559793 -4.063402 14.292172
v -9.920806 -0.651413 2.153718
v -12.756398 -1.040465 -1.851105
v -13.182612 1.692631 -16.198830
v -12.555650 -0.408648 -20.579967
v -17.170622 -1.309382 -26.446369
v -12.829087 -0.168618 -36.538155
v -2.035482 1.691618 35.074661
v 0.624814 -0.765100 26.261183
v -4.240775 2.010525 22.176516
v -7.803540 -0.652415 7.995882
v -4.721026 -0.753818 2.778859
v -6.179265 -0.519228 -2.314973
v -3.404736 -0.359799 -12.737926
v -5.330199 0.694610 -15.617978
v -4.282717 -0.389978 -27.691496
v -2.835126 0.836118 -36.760197
v 3.959740 0.164957 38.332527
v 4.093303 -0.510437 27.020750
v 3.856344 0.593951 16.552540
v 5.482148 0.573187 10.567211
v 5.118646 -2.433059 2.570614
v 3.600110 5.208644 -3.164697
v 5.479476 -1.954323 -15.055428
v 1.089697 -2.247531 -22.754395
v 5.070881 -0.339711 -29.322247
v 1.003788 0.957848 -35.343666
v 13.650104 0.400425 36.960358
v 12.087806 1.208265 31.239241
v 13.358706 -3.008206 18.435808
v 12.436260 -0.166456 12.193215
v 12.605449 0.993998 4.142927
v 14.120350 2.135456 -5.628013
v 9.016799 1.419427 -13.179213
v 8.450815 -1.189363 -18.694084
v 12.907542 -0.383570 -28.557461
v 13.925346 3.139519 -38.833019
v 20.015837 -0.938274 34.793621
v 19.775507 1.863310 25.133692
v 19.856585 0.341669 20.789442
v 21.162577 0.740006 11.614446
v 23.595676 -0.341564 2.671775
v 20.180344 0.612609 -4.339357
v 20.807140 -0.115115 -11.480190
v 21.144918 1.125408 -21.836554
v 20.417742 0.207638 -28.720024
v 20.737343 -0.153344 -36.637497
v 26.223307 -4.457132 36.863995
v 27.675037 -1.755927 28.584507
v 28.027384 -1.952589 20.556276
v 29.936798 -1.348249 12.804536
v 25.471291 -0.567122 6.497461
v 28.990553 0.536451 -4.898917
v 24.069727 -0.153061 -15.551478
v 30.861168 0.136671 -18.993774
v 26.954769 3.333997 -26.443922
v 32.075733 1.914272 -37.478920
v 37.044487 0.265855 36.964405
v 36.362160 -0.132764 28.682999
v 36.101177 -0.219348 21.600292
v 36.333878 1.278939 12.914607
v 37.160603 0.355361 4.161244
v 40.663033 0.186421 -5.565114
v 37.245712 2.375250 -10.787814
v 35.449825 0.567689 -19.649357
v 36.463531 0.336828 -28.351635
v 36.478008 -0.663158 -37.467701
vt -3.914570 -3.914569
vt -4.895585 -4.895585
vt -3.914570 -4.895585
vt 5.895585 -3.914569
vt 4.914570 -4.895585
vt 5.895585 -4.895585
vt 3.933554 -3.914569
vt 4.914570 -3.914569
vt 2.952539 -3.914569
vt 3.933554 -4.895585
vt 1.971523 -4.895585
vt 2.952539 -4.895585
vt 1.971523 -3.914569
vt 0.990508 -4.895585
vt 0.990508 -3.914569
vt 0.009492 -4.895585
vt -0.971523 -3.914569
vt 0.009493 -3.914569
vt -1.952538 -4.895585
vt -0.971523 -4.895585
vt -1.952538 -3.914569
vt -2.933554 -4.895585
vt -2.933554 -3.914569
vt 5.895585 5.895585
vt 4.914570 4.914569
vt 5.895585 4.914569
vt 5.895585 3.933554
vt 4.914570 3.933554
vt 5.895585 2.952539
vt 4.914570 1.971523
vt 5.895585 1.971523
vt 4.914570 0.990507
vt 5.895585 0.990508
vt 4.914570 0.009492
vt 5.895585 0.009492
vt 5.895585 -0.971523
vt 4.914570 -0.971524
vt 5.895585 -1.952539
vt 4.914570 -2.933554
vt 5.895585 -2.933553
vt 4.914570 5.895585
vt 3.933554 4.914569
vt 3.933554 3.933554
vt 4.914570 2.952539
vt 3.933554 2.952539
vt 3.933554 0.990507
vt 3.933554 0.009492
vt 3.933554 -1.952539
vt 4.914570 -1.952539
vt 3.933554 -2.933554
vt 2.952539 5.895585
vt 3.933554 5.895585
vt 2.952539 4.914569
vt 2.952539 2.952539
vt 2.952539 1.971523
vt 3.933554 1.971523
vt 2.952539 0.990507
vt 2.952539 0.009492
vt 2.952539 -0.971524
vt 3.933554 -0.971524
vt 2.952539 -1.952539
vt 2.952539 -2.933554
vt 1.971523 4.914569
vt 2.952539 3.933554
vt 1.971523 2.952539
vt 1.971523 1.971523
vt 1.971523 0.009492
vt 1.971523 -0.971524
vt 1.971523 -2.933554
vt 0.990507 5.895585
vt 1.971523 5.895585
vt 0.990507 4.914569
vt 1.971523 3.933554
vt 0.990507 2.952539
vt 0.990507 1.971523
vt 1.971523 0.990507
vt 0.990507 0.009492
vt 0.990507 -0.971524
vt 0.990507 -1.952539
vt 1.971523 -1.952539
vt 0.990508 -2.933554
vt 0.009492 4.914569
vt 0.009492 3.933554
vt 0.990507 3.933554
vt 0.009492 2.952539
vt 0.009492 1.971523
vt 0.990507 0.990507
vt 0.009492 0.009492
vt 0.009492 -1.952539
vt 0.009492 5.895585
vt -0.971524 4.914569
vt -0.971524 3.933554
vt -0.971524 2.952539
vt -0.971524 1.971523
vt -0.971524 0.990507
vt 0.009492 0.990507
vt -0.971524 -0.971524
vt 0.009492 -0.971524
vt -0.971524 -1.952539
vt 0.009493 -2.933554
vt -1.952539 5.895585
vt -0.971524 5.895585
vt -1.952538 4.914569
vt -1.952538 3.933554
vt -1.952538 1.971523
vt -1.952538 0.009492
vt -0.971524 0.009492
vt -1.952538 -0.971524
vt -1.952538 -1.952539
vt -0.971524 -2.933554
vt -2.933554 4.914569
vt -2.933553 3.933554
vt -2.933553 2.952539
vt -1.952539 2.952539
vt -2.933554 0.990507
vt -1.952538 0.990507
vt -2.933554 0.009492
vt -2.933554 -0.971524
vt -2.933553 -2.933554
vt -1.952538 -2.933554
vt -2.933554 5.895585
vt -3.914570 4.914569
vt -3.914569 2.952539
vt -2.933554 1.971523
vt -3.914569 0.990507
vt -3.914570 -0.971524
vt -2.933554 -1.952539
vt -3.914570 -2.933554
vt -4.895585 5.895585
vt -3.914570 5.895585
vt -4.895585 4.914569
vt -3.914569 3.933554
vt -4.895585 3.933554
vt -4.895585 2.952539
vt -3.914569 1.971523
vt -4.895585 0.990507
vt -4.895585 0.009492
vt -3.914570 0.009492
vt -4.895585 -0.971524
vt -3.914570 -1.952539
vt -4.895585 -2.933554
vt -4.895585 -3.914569
vt -4.895585 1.971523
vt -4.895585 -1.952539
vn -0.0052 0.9690 0.2469
vn 0.3823 0.8956 -0.2276
vn -0.2839 0.9347 -0.2141
vn 0.4098 0.9116 0.0310
vn 0.4268 0.8977 0.1097
vn -0.3106 0.9009 -0.3032
vn -0.1820 0.9806 -0.0721
vn -0.1690 0.9856 -0.0098
vn 0.1034 0.9583 -0.2665
vn 0.1731 0.9824 0.0709
vn -0.3111 0.9201 -0.2378
vn 0.4032 0.9140 0.0457
vn 0.4058 0.9122 0.0570
vn 0.3525 0.9351 0.0376
vn 0.2950 0.9554 -0.0156
vn 0.2049 0.9787 0.0096
vn -0.2019 0.9325 -0.2994
vn -0.2687 0.9037 0.3334
vn 0.4049 0.8040 0.4355
vn -0.8689 0.3906 -0.3039
vn -0.7245 0.4578 0.5152
vn -0.0715 0.9662 -0.2475
vn -0.2045 0.9781 -0.0387
vn 0.2351 0.8310 0.5042
vn -0.0897 0.9627 -0.2554
vn -0.1528 0.9530 0.2617
vn -0.3137 0.9448 0.0949
vn -0.3253 0.9456 -0.0102
vn 0.1271 0.8800 -0.4576
vn 0.1197 0.8744 0.4703
vn -0.2668 0.9052 -0.3309
vn -0.0498 0.1665 -0.9848
vn -0.0012 0.9765 -0.2155
vn -0.1551 0.8350 0.5280
vn -0.2431 0.9553 -0.1680
vn 0.2289 0.9734 -0.0132
vn 0.2287 0.9361 0.2673
vn 0.0779 0.9910 -0.1089
vn -0.6273 0.6482 -0.4316
vn 0.0481 0.9003 0.4326
vn 0.0602 0.9341 0.3520
vn 0.0694 0.8728 -0.4832
vn 0.0008 0.9383 0.3458
vn 0.0315 0.9993 -0.0208
vn 0.3886 0.9210 -0.0270
vn 0.3692 0.9057 -0.2084
vn 0.1357 0.9670 0.2157
vn 0.1335 0.9741 0.1827
vn 0.1286 0.9766 0.1723
vn 0.2913 0.6046 -0.7413
vn 0.2009 0.9796 -0.0007
vn 0.0435 0.9951 -0.0886
vn -0.2493 0.8296 0.4997
vn -0.3318 0.9406 -0.0713
vn -0.8801 0.4538 -0.1395
vn -0.5493 0.8115 0.1992
vn -0.0817 0.9959 -0.0389
vn 0.1402 0.9734 0.1813
vn 0.1448 0.9001 -0.4110
vn -0.0795 0.9928 -0.0899
vn -0.0627 0.9944 0.0854
vn 0.1155 0.9641 0.2391
vn -0.0112 0.9623 -0.2716
vn 0.3243 0.9160 0.2362
vn 0.0372 0.9804 -0.1934
vn -0.0790 0.9947 -0.0660
vn -0.4857 0.8557 0.1785
vn -0.5095 0.8517 -0.1226
vn 0.4444 0.8953 0.0307
vn 0.3682 0.9283 -0.0514
vn -0.0763 0.9896 0.1216
vn -0.0004 0.9860 0.1666
vn -0.1791 0.9820 -0.0607
vn 0.3371 0.9370 0.0912
vn 0.1002 0.9947 0.0238
vn -0.3387 0.8857 -0.3176
vn -0.3915 0.5013 0.7716
vn -0.4331 0.7402 -0.5143
vn -0.1759 0.9824 0.0629
vn -0.2197 0.9644 0.1470
vn -0.0898 0.9594 0.2674
vn -0.3229 0.9464 0.0065
vn 0.2294 0.9705 0.0744
vn -0.3332 0.8852 -0.3246
vn -0.0660 0.9044 0.4215
vn -0.0931 0.9857 0.1401
vn 0.2119 0.9664 0.1457
vn 0.1543 0.9684 -0.1961
vn 0.1776 0.8824 -0.4357
vn -0.1796 0.9837 -0.0008
vn 0.3201 0.8860 0.3355
vn 0.5482 0.6829 -0.4829
vn 0.3070 0.9161 0.2580
vn 0.2481 0.9157 -0.3161
vn 0.2716 0.9591 0.0803
vn 0.2293 0.9718 -0.0551
vn 0.0166 0.9918 0.1269
vn 0.0022 0.9949 -0.1012
vn 0.1644 0.9787 0.1226
vn -0.4078 0.9097 -0.0782
vn -0.4142 0.9083 -0.0581
vn -0.3938 0.9057 -0.1569
vn -0.3917 0.8928 0.2226
vn -0.2057 0.9781 -0.0330
vn -0.2128 0.9768 0.0237
vn -0.0468 0.9867 0.1554
vn -0.0632 0.9950 0.0768
vn -0.1982 0.9798 0.0281
vn -0.1269 0.9776 -0.1680
vn 0.3330 0.9171 0.2190
vn 0.3039 0.9525 0.0185
vn 0.2170 0.9644 -0.1512
vn 0.1939 0.9790 -0.0631
vn 0.0627 0.9979 -0.0145
vn 0.0356 0.9847 0.1708
vn 0.2112 0.9739 -0.0828
vn -0.1808 0.9801 -0.0821
vn 0.3300 0.9280 0.1730
vn 0.2469 0.9385 -0.2415
vn -0.4518 0.8889 -0.0762
vn 0.2591 0.9601 -0.1049
vn 0.0137 0.9558 0.2936
vn 0.3586 0.9033 -0.2354
vn -0.4131 0.9103 0.0252
vn 0.3515 0.9301 0.1068
vn 0.0998 0.8647 -0.4923
vn -0.1015 0.9912 -0.0854
vn -0.0417 0.9988 0.0273
vn 0.0618 0.9596 -0.2746
vn 0.4223 0.9052 0.0475
vn -0.1929 0.9262 -0.3240
vn 0.4883 0.8351 0.2532
vn -0.1282 0.9653 -0.2277
vn 0.3556 0.9289 0.1037
vn -0.0182 0.9349 0.3544
vn 0.0781 0.9608 -0.2661
vn 0.2439 0.9594 0.1421
vn 0.1918 0.9743 -0.1182
vn 0.2284 0.9706 0.0759
vn 0.7253 0.6872 0.0413
vn 0.7014 0.6781 0.2194
vn 0.1218 0.9051 -0.4073
vn -0.5764 0.0922 -0.8119
vn 0.0371 0.9760 -0.2144
vn 0.2428 0.8347 0.4942
vn -0.2262 0.9607 -0.1611
vn -0.2954 0.9467 0.1284
vn -0.1533 0.9569 0.2465
vn -0.2728 0.9590 -0.0770
vn -0.1640 0.5959 -0.7861
vn 0.0150 0.9017 0.4321
vn 0.1711 0.9164 0.3618
vn -0.2202 0.9114 -0.3476
vn -0.3113 0.9469 -0.0811
vn -0.3966 0.9118 0.1061
vn -0.0681 0.9937 0.0887
vn -0.1845 0.9433 -0.2760
vn 0.1707 0.9635 0.2061
vn 0.3135 0.9319 0.1822
vn -0.1283 0.9828 0.1326
vn -0.6278 0.6674 -0.4006
vn 0.4090 0.9121 0.0268
vn 0.3919 0.9158 0.0880
vn -0.1054 0.8793 0.4644
vn 0.0687 0.9976 0.0115
vn -0.0136 0.8383 -0.5450
vn 0.0121 0.9625 0.2712
vn -0.0927 0.9952 -0.0310
vn 0.1345 0.9741 0.1816
vn 0.5387 0.7871 -0.3004
vn 0.5465 0.6488 -0.5295
vn -0.0687 0.9942 0.0828
vn -0.3175 0.9167 0.2427
vn -0.0861 0.9527 -0.2915
vn 0.2368 0.9112 0.3371
vn -0.3247 0.9410 -0.0951
vn 0.0206 0.9998 -0.0073
vn 0.0146 0.9990 0.0418
vn -0.0794 0.9968 -0.0059
vn 0.1004 0.9541 0.2822
vn -0.0852 0.9917 -0.0965
vn -0.0967 0.9883 0.1182
vn 0.0059 0.9866 0.1631
vn 0.2739 0.9602 -0.0541
vn -0.0960 0.9897 0.1066
vn -0.0866 0.9959 -0.0270
vn 0.1501 0.9232 -0.3539
vn 0.1208 0.6111 0.7823
vn 0.0200 0.8578 -0.5136
vn 0.1450 0.9821 -0.1201
vn 0.0481 0.9510 0.3054
vn 0.0283 0.9809 0.1923
vn -0.0581 0.9941 0.0919
vn -0.0041 0.9900 0.1409
vn -0.0371 0.9481 -0.3159
vn 0.2653 0.8917 0.3667
vn 0.0714 0.9870 0.1438
vn 0.3107 0.9373 0.1577
vn 0.2204 0.9458 -0.2386
vn -0.5684 0.7647 -0.3034
vn -0.0023 0.9968 0.0804
vn -0.0261 0.9464 0.3219
vn 0.0544 0.9130 -0.4044
vn 0.1355 0.9525 0.2729
vn -0.3416 0.8850 -0.3164
vn -0.4508 0.8923 -0.0254
vn 0.1082 0.9900 -0.0903
vn 0.1297 0.9890 0.0714
vn 0.2581 0.9632 -0.0755
vn -0.1512 0.9821 0.1127
vn -0.0805 0.9891 -0.1234
vn -0.0794 0.9957 -0.0486
vn 0.6495 0.6353 -0.4178
vn 0.3726 0.8610 0.3462
vn 0.4179 0.9085 -0.0039
vn 0.2132 0.9686 0.1280
vn 0.2374 0.9702 -0.0479
vn -0.0472 0.9955 0.0818
vn -0.0438 0.9981 -0.0444
vn 0.0481 0.9829 0.1776
vn -0.0257 0.9137 0.4056
vn -0.1905 0.9586 -0.2117
vn -0.4948 0.8270 -0.2670
vn -0.1832 0.9825 -0.0322
vn -0.1836 0.9830 -0.0053
vn -0.3779 0.9140 0.1475
vn -0.3746 0.9177 -0.1322
vn 0.0296 0.9995 -0.0067
vn 0.0484 0.9321 0.3589
vn -0.1169 0.9775 -0.1757
vn -0.0988 0.9944 -0.0379
vn 0.5032 0.8591 -0.0934
vn 0.1830 0.9803 -0.0743
vn 0.0679 0.9931 0.0955
vn 0.0190 0.9988 0.0460
vn 0.2958 0.9460 -0.1326
vn 0.3274 0.9439 0.0436
vn 0.2192 0.9624 0.1606
vn -0.1692 0.9746 -0.1469
vn 0.0232 0.9979 0.0597
vn 0.1383 0.8794 0.4556
vn -0.3333 0.7253 -0.6023
usemtl Material.001
s off
f 144/1/1 4/2/1 35/3/1
f 5/4/2 44/5/2 3/6/2
f 64/7/3 44/5/3 54/8/3
f 74/9/4 43/10/4 64/7/4
f 74/9/5 41/11/5 42/12/5
f 84/13/6 40/14/6 41/11/6
f 94/15/7 39/16/7 40/14/7
f 114/17/8 39/16/8 104/18/8
f 114/17/9 37/19/9 38/20/9
f 124/21/10 36/22/10 37/19/10
f 134/23/11 35/3/11 36/22/11
f 1/24/12 45/25/12 14/26/12
f 45/25/13 13/27/13 14/26/13
f 46/28/14 12/29/14 13/27/14
f 12/29/15 48/30/15 11/31/15
f 11/31/16 49/32/16 10/33/16
f 10/33/17 50/34/17 9/35/17
f 50/34/18 8/36/18 9/35/18
f 51/37/19 7/38/19 8/36/19
f 7/38/20 53/39/20 6/40/20
f 53/39/21 5/4/21 6/40/21
f 15/41/22 55/42/22 45/25/22
f 55/42/23 46/28/23 45/25/23
f 56/43/24 47/44/24 46/28/24
f 57/45/25 48/30/25 47/44/25
f 48/30/26 59/46/26 49/32/26
f 49/32/27 60/47/27 50/34/27
f 60/47/28 51/37/28 50/34/28
f 51/37/29 62/48/29 52/49/29
f 52/49/30 63/50/30 53/39/30
f 53/39/31 64/7/31 54/8/31
f 17/51/32 55/42/32 16/52/32
f 65/53/33 56/43/33 55/42/33
f 56/43/34 67/54/34 57/45/34
f 57/45/35 68/55/35 58/56/35
f 58/56/36 69/57/36 59/46/36
f 59/46/37 70/58/37 60/47/37
f 60/47/38 71/59/38 61/60/38
f 61/60/39 72/61/39 62/48/39
f 62/48/40 73/62/40 63/50/40
f 73/62/41 64/7/41 63/50/41
f 17/51/42 75/63/42 65/53/42
f 75/63/43 66/64/43 65/53/43
f 66/64/44 77/65/44 67/54/44
f 67/54/45 78/66/45 68/55/45
f 78/66/46 69/57/46 68/55/46
f 69/57/47 80/67/47 70/58/47
f 80/67/48 71/59/48 70/58/48
f 81/68/49 72/61/49 71/59/49
f 72/61/50 83/69/50 73/62/50
f 83/69/51 74/9/51 73/62/51
f 19/70/52 75/63/52 18/71/52
f 85/72/53 76/73/53 75/63/53
f 76/73/54 87/74/54 77/65/54
f 77/65/55 88/75/55 78/66/55
f 88/75/56 79/76/56 78/66/56
f 79/76/57 90/77/57 80/67/57
f 80/67/58 91/78/58 81/68/58
f 81/68/59 92/79/59 82/80/59
f 82/80/60 93/81/60 83/69/60
f 93/81/61 84/13/61 83/69/61
f 19/70/62 95/82/62 85/72/62
f 85/72/63 96/83/63 86/84/63
f 86/84/64 97/85/64 87/74/64
f 97/85/65 88/75/65 87/74/65
f 98/86/66 89/87/66 88/75/66
f 89/87/67 100/88/67 90/77/67
f 100/88/68 91/78/68 90/77/68
f 91/78/69 102/89/69 92/79/69
f 102/89/70 93/81/70 92/79/70
f 93/81/71 104/18/71 94/15/71
f 20/90/72 105/91/72 95/82/72
f 95/82/73 106/92/73 96/83/73
f 96/83/74 107/93/74 97/85/74
f 97/85/75 108/94/75 98/86/75
f 98/86/76 109/95/76 99/96/76
f 109/95/77 100/88/77 99/96/77
f 100/88/78 111/97/78 101/98/78
f 101/98/79 112/99/79 102/89/79
f 112/99/80 103/100/80 102/89/80
f 103/100/81 114/17/81 104/18/81
f 22/101/82 105/91/82 21/102/82
f 115/103/83 106/92/83 105/91/83
f 116/104/84 107/93/84 106/92/84
f 107/93/85 118/105/85 108/94/85
f 118/105/86 109/95/86 108/94/86
f 109/95/87 120/106/87 110/107/87
f 110/107/88 121/108/88 111/97/88
f 121/108/89 112/99/89 111/97/89
f 122/109/90 113/110/90 112/99/90
f 113/110/91 124/21/91 114/17/91
f 22/101/92 125/111/92 115/103/92
f 115/103/93 126/112/93 116/104/93
f 116/104/94 127/113/94 117/114/94
f 127/113/95 118/105/95 117/114/95
f 118/105/96 129/115/96 119/116/96
f 119/116/97 130/117/97 120/106/97
f 130/117/98 121/108/98 120/106/98
f 131/118/99 122/109/99 121/108/99
f 122/109/100 133/119/100 123/120/100
f 133/119/101 124/21/101 123/120/101
f 23/121/102 135/122/102 125/111/102
f 135/122/103 126/112/103 125/111/103
f 126/112/104 137/123/104 127/113/104
f 137/123/105 128/124/105 127/113/105
f 128/124/106 139/125/106 129/115/106
f 139/125/107 130/117/107 129/115/107
f 130/117/108 141/126/108 131/118/108
f 141/126/109 132/127/109 131/118/109
f 132/127/110 143/128/110 133/119/110
f 143/128/111 134/23/111 133/119/111
f 2/129/112 135/122/112 24/130/112
f 25/131/113 136/132/113 135/122/113
f 26/133/114 137/123/114 136/132/114
f 27/134/115 138/135/115 137/123/115
f 138/135/116 29/136/116 139/125/116
f 139/125/117 30/137/117 140/138/117
f 140/138/118 31/139/118 141/126/118
f 31/139/119 142/140/119 141/126/119
f 142/140/120 33/141/120 143/128/120
f 143/128/121 34/142/121 144/1/121
f 144/1/122 34/142/122 4/2/122
f 5/4/123 54/8/123 44/5/123
f 64/7/124 43/10/124 44/5/124
f 74/9/125 42/12/125 43/10/125
f 74/9/126 84/13/126 41/11/126
f 84/13/127 94/15/127 40/14/127
f 94/15/128 104/18/128 39/16/128
f 114/17/129 38/20/129 39/16/129
f 114/17/130 124/21/130 37/19/130
f 124/21/131 134/23/131 36/22/131
f 134/23/132 144/1/132 35/3/132
f 1/24/133 15/41/133 45/25/133
f 45/25/134 46/28/134 13/27/134
f 46/28/135 47/44/135 12/29/135
f 12/29/136 47/44/136 48/30/136
f 11/31/137 48/30/137 49/32/137
f 10/33/138 49/32/138 50/34/138
f 50/34/139 51/37/139 8/36/139
f 51/37/140 52/49/140 7/38/140
f 7/38/141 52/49/141 53/39/141
f 53/39/142 54/8/142 5/4/142
f 15/41/143 16/52/143 55/42/143
f 55/42/144 56/43/144 46/28/144
f 56/43/145 57/45/145 47/44/145
f 57/45/146 58/56/146 48/30/146
f 48/30/147 58/56/147 59/46/147
f 49/32/148 59/46/148 60/47/148
f 60/47/149 61/60/149 51/37/149
f 51/37/150 61/60/150 62/48/150
f 52/49/151 62/48/151 63/50/151
f 53/39/152 63/50/152 64/7/152
f 17/51/153 65/53/153 55/42/153
f 65/53/154 66/64/154 56/43/154
f 56/43/155 66/64/155 67/54/155
f 57/45/156 67/54/156 68/55/156
f 58/56/157 68/55/157 69/57/157
f 59/46/158 69/57/158 70/58/158
f 60/47/159 70/58/159 71/59/159
f 61/60/160 71/59/160 72/61/160
f 62/48/161 72/61/161 73/62/161
f 73/62/162 74/9/162 64/7/162
f 17/51/163 18/71/163 75/63/163
f 75/63/164 76/73/164 66/64/164
f 66/64/165 76/73/165 77/65/165
f 67/54/166 77/65/166 78/66/166
f 78/66/167 79/76/167 69/57/167
f 69/57/168 79/76/168 80/67/168
f 80/67/169 81/68/169 71/59/169
f 81/68/170 82/80/170 72/61/170
f 72/61/171 82/80/171 83/69/171
f 83/69/172 84/13/172 74/9/172
f 19/70/173 85/72/173 75/63/173
f 85/72/174 86/84/174 76/73/174
f 76/73/175 86/84/175 87/74/175
f 77/65/176 87/74/176 88/75/176
f 88/75/177 89/87/177 79/76/177
f 79/76/178 89/87/178 90/77/178
f 80/67/179 90/77/179 91/78/179
f 81/68/180 91/78/180 92/79/180
f 82/80/181 92/79/181 93/81/181
f 93/81/182 94/15/182 84/13/182
f 19/70/183 20/90/183 95/82/183
f 85/72/184 95/82/184 96/83/184
f 86/84/185 96/83/185 97/85/185
f 97/85/186 98/86/186 88/75/186
f 98/86/187 99/96/187 89/87/187
f 89/87/188 99/96/188 100/88/188
f 100/88/189 101/98/189 91/78/189
f 91/78/190 101/98/190 102/89/190
f 102/89/191 103/100/191 93/81/191
f 93/81/192 103/100/192 104/18/192
f 20/90/193 21/102/193 105/91/193
f 95/82/194 105/91/194 106/92/194
f 96/83/195 106/92/195 107/93/195
f 97/85/196 107/93/196 108/94/196
f 98/86/197 108/94/197 109/95/197
f 109/95/198 110/107/198 100/88/198
f 100/88/199 110/107/199 111/97/199
f 101/98/200 111/97/200 112/99/200
f 112/99/201 113/110/201 103/100/201
f 103/100/202 113/110/202 114/17/202
f 22/101/203 115/103/203 105/91/203
f 115/103/204 116/104/204 106/92/204
f 116/104/205 117/114/205 107/93/205
f 107/93/206 117/114/206 118/105/206
f 118/105/207 119/116/207 109/95/207
f 109/95/208 119/116/208 120/106/208
f 110/107/209 120/106/209 121/108/209
f 121/108/210 122/109/210 112/99/210
f 122/109/211 123/120/211 113/110/211
f 113/110/212 123/120/212 124/21/212
f 22/101/213 23/121/213 125/111/213
f 115/103/214 125/111/214 126/112/214
f 116/104/215 126/112/215 127/113/215
f 127/113/216 128/124/216 118/105/216
f 118/105/217 128/124/217 129/115/217
f 119/116/218 129/115/218 130/117/218
f 130/117/219 131/118/219 121/108/219
f 131/118/220 132/127/220 122/109/220
f 122/109/221 132/127/221 133/119/221
f 133/119/222 134/23/222 124/21/222
f 23/121/223 24/130/223 135/122/223
f 135/122/224 136/132/224 126/112/224
f 126/112/225 136/132/225 137/123/225
f 137/123/226 138/135/226 128/124/226
f 128/124/227 138/135/227 139/125/227
f 139/125/228 140/138/228 130/117/228
f 130/117/229 140/138/229 141/126/229
f 141/126/230 142/140/230 132/127/230
f 132/127/231 142/140/231 143/128/231
f 143/128/232 144/1/232 134/23/232
f 2/129/233 25/131/233 135/122/233
f 25/131/234 26/133/234 136/132/234
f 26/133/235 27/134/235 137/123/235
f 27/134/236 28/143/236 138/135/236
f 138/135/237 28/143/237 29/136/237
f 139/125/238 29/136/238 30/137/238
f 140/138/239 30/137/239 31/139/239
f 31/139/240 32/144/240 142/140/240
f 142/140/241 32/144/241 33/141/241
f 143/128/242 33/141/242 34/142/242
